<?xml version="1.0" encoding="UTF-8" standalone="no"?>
<!-- Created with Inkscape (http://www.inkscape.org/) -->

<svg
   xmlns:dc="http://purl.org/dc/elements/1.1/"
   xmlns:cc="http://creativecommons.org/ns#"
   xmlns:rdf="http://www.w3.org/1999/02/22-rdf-syntax-ns#"
   xmlns:svg="http://www.w3.org/2000/svg"
   xmlns="http://www.w3.org/2000/svg"
   xmlns:sodipodi="http://sodipodi.sourceforge.net/DTD/sodipodi-0.dtd"
   xmlns:inkscape="http://www.inkscape.org/namespaces/inkscape"
   width="61.471989mm"
   height="61.471992mm"
   viewBox="0 0 61.471989 61.471992"
   version="1.1"
   id="svg4547"
   inkscape:version="0.92.3 (2405546, 2018-03-11)"
   sodipodi:docname="egg.svg">
  <defs
     id="defs4541" />
  <sodipodi:namedview
     id="base"
     pagecolor="#ffffff"
     bordercolor="#666666"
     borderopacity="1.0"
     inkscape:pageopacity="0.0"
     inkscape:pageshadow="2"
     inkscape:zoom="1.979899"
     inkscape:cx="26.14008"
     inkscape:cy="78.96239"
     inkscape:document-units="mm"
     inkscape:current-layer="layer1"
     showgrid="false"
     inkscape:pagecheckerboard="true"
     fit-margin-top="0"
     fit-margin-left="0"
     fit-margin-right="0"
     fit-margin-bottom="0"
     inkscape:window-width="1858"
     inkscape:window-height="1057"
     inkscape:window-x="1912"
     inkscape:window-y="-8"
     inkscape:window-maximized="1" />
  <metadata
     id="metadata4544">
    <rdf:RDF>
      <cc:Work
         rdf:about="">
        <dc:format>image/svg+xml</dc:format>
        <dc:type
           rdf:resource="http://purl.org/dc/dcmitype/StillImage" />
        <dc:title></dc:title>
      </cc:Work>
    </rdf:RDF>
  </metadata>
  <g
     inkscape:label="Layer 1"
     inkscape:groupmode="layer"
     id="layer1"
     transform="translate(-61.471991,-89.331579)">
    <path
       style="opacity:1;fill:#ffffff;fill-opacity:1;stroke-width:0.26458332"
       d="m 122.94398,120.06757 c 0,5.72032 -7.19688,14.71045 -13.79011,17.717 -3.58018,1.63259 -6.88815,-2.64532 -8.98498,-0.67254 -5.500682,5.17523 0.18761,13.69154 -7.960905,13.69154 -3.84655,0 -13.148711,-0.49722 -16.996408,-5.07871 -2.767483,-3.29527 -0.262152,-10.70301 -2.359751,-12.18965 -7.856021,-5.56781 -11.379836,-3.10583 -11.379835,-13.46764 10e-7,-8.35188 8.142021,-12.18394 13.548193,-17.72358 5.581763,-5.719563 8.564657,-13.012411 17.187801,-13.012411 4.851289,0 9.906975,1.610545 12.247315,5.893229 1.5239,2.788632 0.35701,8.095772 2.51439,10.075502 2.7968,2.56648 7.70805,-0.81186 10.76661,0.84163 3.6371,1.96627 5.20768,9.05589 5.20768,13.92563 z"
       id="path4551"
       inkscape:connector-curvature="0"
       sodipodi:nodetypes="sssssssssssss" />
    <circle
       style="opacity:1;fill:#ffcc00;fill-opacity:1;stroke-width:0.26458332"
       id="path4554"
       cx="90.470734"
       cy="119.93392"
       r="9.8889723" />
  </g>
</svg>
