<?xml version="1.0" encoding="UTF-8" standalone="no"?>
<!-- Created with Inkscape (http://www.inkscape.org/) -->

<svg
   xmlns:dc="http://purl.org/dc/elements/1.1/"
   xmlns:cc="http://creativecommons.org/ns#"
   xmlns:rdf="http://www.w3.org/1999/02/22-rdf-syntax-ns#"
   xmlns:svg="http://www.w3.org/2000/svg"
   xmlns="http://www.w3.org/2000/svg"
   xmlns:sodipodi="http://sodipodi.sourceforge.net/DTD/sodipodi-0.dtd"
   xmlns:inkscape="http://www.inkscape.org/namespaces/inkscape"
   width="94.561279mm"
   height="101.80063mm"
   viewBox="0 0 94.561279 101.80063"
   version="1.1"
   id="svg8"
   inkscape:version="0.92.3 (2405546, 2018-03-11)"
   sodipodi:docname="serin.svg">
  <defs
     id="defs2" />
  <sodipodi:namedview
     id="base"
     pagecolor="#ffffff"
     bordercolor="#666666"
     borderopacity="1.0"
     inkscape:pageopacity="0.0"
     inkscape:pageshadow="2"
     inkscape:zoom="1.4"
     inkscape:cx="-38.362763"
     inkscape:cy="210.9376"
     inkscape:document-units="mm"
     inkscape:current-layer="layer1"
     showgrid="false"
     fit-margin-top="0"
     fit-margin-left="0"
     fit-margin-right="0"
     fit-margin-bottom="0"
     inkscape:window-width="1846"
     inkscape:window-height="1057"
     inkscape:window-x="66"
     inkscape:window-y="-8"
     inkscape:window-maximized="1" />
  <metadata
     id="metadata5">
    <rdf:RDF>
      <cc:Work
         rdf:about="">
        <dc:format>image/svg+xml</dc:format>
        <dc:type
           rdf:resource="http://purl.org/dc/dcmitype/StillImage" />
        <dc:title></dc:title>
      </cc:Work>
    </rdf:RDF>
  </metadata>
  <g
     inkscape:label="Layer 1"
     inkscape:groupmode="layer"
     id="layer1"
     transform="translate(-60.037064,-75.213743)">
    <path
       style="opacity:1;fill:#0090ff;fill-opacity:1;stroke-width:0.16291796"
       d="m 122.69683,95.864802 c 0.60124,6.334198 1.48505,12.938768 -1.36573,14.043998 -2.13013,0.82584 -7.93712,1.39872 -12.45807,-2.43701 -0.46866,-0.39763 -1.40372,12.21792 -2.73309,22.75615 -0.035,0.27754 2.84446,1.34438 5.04063,1.81536 2.08319,0.44675 4.69046,3.94775 4.65951,4.18079 -0.0363,0.27368 -2.08078,-1.17854 -4.70865,-2.27302 -2.39846,-0.99894 -5.39962,-0.65363 -5.45044,-0.29883 -0.15267,1.06585 -0.30983,2.08802 -0.47139,3.04762 -0.10265,0.60971 2.83105,2.45615 5.31186,4.08509 0.86115,0.56544 5.82547,-3.62002 6.43154,-3.16782 0.6884,0.51363 -2.87807,5.83813 -3.08253,5.83959 -9.07537,0.0649 -9.50765,-2.52919 -9.65951,-1.98263 -1.86613,11.57187 -6.200123,18.71779 -14.712541,24.08675 -0.721279,0.44674 4.274743,11.07255 3.464668,11.44568 -0.706986,0.32564 -7.210067,-9.59012 -7.977729,-9.35054 -3.140786,0.98017 -6.762264,1.12293 -10.642351,-0.52939 -0.659372,-0.28079 -3.924799,10.01716 -4.598018,9.628 -0.5925,-0.34251 1.408645,-11.35939 0.807006,-11.79269 -7.331613,-5.28021 -8.870841,-14.9788 -10.281327,-27.14248 -0.679255,-5.85773 0.251285,-26.9272 1.148652,-28.14058 0.911087,-1.23192 1.704628,19.53024 6.051438,24.42603 18.891233,26.96419 32.388896,-10.55143 32.744312,-32.0313 -0.0278,-0.61098 -1.897746,-5.829138 -1.897746,-6.383321 0,-1.463516 0.281163,-2.863289 0.793921,-4.151216 0.198524,-0.498649 -1.636865,-3.084418 -3.649561,-5.863344 -1.047114,-1.445748 -2.54105,-2.08314 -3.881593,-2.376527 -1.815792,-0.397399 -3.291962,-5.28392 -3.053234,-5.572999 0.146095,-0.176908 1.721575,4.215997 3.663499,3.974812 1.640859,-0.203792 3.501805,-0.06046 4.871387,1.05538 2.693558,2.194525 5.280357,4.279824 5.579807,4.040223 1.46628,-1.173265 3.2277,-2.011554 5.15993,-2.394205 0.29093,-0.05762 -1.14035,-0.966109 -2.33907,-2.726759 -0.9912,-1.455843 -3.75166,-1.732343 -4.93513,-2.524637 -1.237492,-0.828463 -2.130409,-3.293851 -2.442696,-3.825475 -0.400859,-0.682402 1.474729,1.976436 3.126656,2.143534 1.73199,0.175196 3.99558,-0.01093 5.09889,0.974422 3.24706,2.899891 7.37497,6.23638 8.15827,6.544473 4.487,1.764865 7.78007,6.153215 8.22843,10.876871 z"
       id="path815"
       inkscape:connector-curvature="0"
       sodipodi:nodetypes="ssssssssssssccsssssssccssssssssssssssss" />
    <path
       style="opacity:1;fill:#483737;fill-opacity:1;stroke-width:0.6919117"
       d="m 153.29967,128.17301 c -1.19047,2.8425 -4.51761,4.61118 -10.92302,5.79534 -6.40541,1.18416 -8.8128,1.95465 -10.25534,0.84972 -0.11971,-0.0917 -0.94804,-2.17588 -18.26966,3.97371 -0.60204,0.21369 -0.59517,-0.47393 -0.64318,-0.50941 -0.13696,-0.10127 16.1439,-5.76214 16.02666,-5.85082 -0.84717,-0.64097 -1.12591,-0.98429 -0.0598,-1.46304 3.06435,-1.37608 17.10851,-3.88242 20.99728,-4.60133 6.40542,-1.18416 4.31755,-1.03673 3.12708,1.80582 z"
       id="path4521"
       inkscape:connector-curvature="0"
       sodipodi:nodetypes="cssssssszc" />
    <circle
       style="opacity:1;fill:#ffffff;fill-opacity:1;stroke-width:0.16002505"
       id="path4524"
       cx="109.07294"
       cy="96.787544"
       r="1.5859627" />
    <circle
       style="opacity:1;fill:#ffffff;fill-opacity:1;stroke-width:0.16002505"
       id="path4524-2"
       cx="119.06796"
       cy="94.124466"
       r="1.5859627" />
  </g>
</svg>
